# xmcd
#
# Track frame offsets: 
#        150
#        14491
#        33122
#        57882
#        78447
#        113625
#        137863
#        162188
#        192382
#        218500
#        243268
#        263754
#        290409
#        346063
#
# Disc length: 4792 seconds
#
# Revision: 3
# Processed by: cddbd v1.5.2PL0 Copyright (c) Steve Scherf et al.
# Submitted via: ExactAudioCopyFreeDBPlugin 1.0
#
DISCID=bb12b60e
DTITLE=Donny Hathaway - These Songs For You, Live!
DYEAR=2004
DGENRE=Soul
TTITLE0=Flying Easy
TTITLE1=Valdez in the Country
TTITLE2=Someday We'll All Be Free
TTITLE3=You've Got a Friend
TTITLE4=He Ain't Heavy, He's My Brother
TTITLE5=What's Goin' On
TTITLE6=Yesterday
TTITLE7=Superwoman
TTITLE8=A Song for You
TTITLE9=Sack Full of Dreams
TTITLE10=Little Ghetto Boy
TTITLE11=I Love You More Than You'll Ever Know
TTITLE12=The Ghetto
TTITLE13=Interview
EXTD=This is a soul album. YEAR: 2004
EXTT0=
EXTT1=
EXTT2=
EXTT3=
EXTT4=
EXTT5=
EXTT6=
EXTT7=
EXTT8=
EXTT9=
EXTT10=
EXTT11=
EXTT12=
EXTT13=
PLAYORDER=
